<svg xmlns="http://www.w3.org/2000/svg" version="1.1" xmlns:xlink="http://www.w3.org/1999/xlink" xmlns:svgjs="http://svgjs.com/svgjs" width="512" height="512" x="0" y="0" viewBox="0 0 500 500" style="enable-background:new 0 0 512 512" xml:space="preserve"><g><path d="m489.168 377.811-55.968-23.52a84.426 84.426 0 0 1 -51.82-77.991v-104.067a85.138 85.138 0 0 0 16.107-17.081c14.738-21.653 26.351-87.134 35.128-124.591 1.276-6.457-7.974-8.713-9.734-2.289-8.342 35.4-19.936 100.521-33.66 121.253-21 30.858-90.4 56.56-119.259 66.179a63.473 63.473 0 0 1 -39.925 0c-28.862-9.619-98.26-35.321-119.259-66.181-13.714-20.746-25.312-85.835-33.659-121.251-1.629-6.287-11.028-4.317-9.734 2.289 8.778 37.457 20.39 102.938 35.127 124.59a85.146 85.146 0 0 0 16.108 17.082v104.067a84.426 84.426 0 0 1 -51.82 77.991l-55.971 23.52c-6 2.755-2.315 11.583 3.875 9.218l55.971-23.52a94.4 94.4 0 0 0 57.945-87.209v-96.487c29.3 20.429 71.292 36.393 98.254 45.377a73.543 73.543 0 0 0 46.251 0c26.963-8.985 68.951-24.949 98.255-45.377v96.487a94.4 94.4 0 0 0 57.942 87.209l55.971 23.52a5 5 0 1 0 3.875-9.218z" fill="#ffffff" data-original="#000000"></path><path d="m160.819 220.436c-.9-6.507-10.423-5.568-9.941 1.083.415 3.811 10.534 93.876 42.92 141a5 5 0 0 0 8.242-5.665c-30.953-45.037-41.122-135.509-41.221-136.418z" fill="#ffffff" data-original="#000000"></path><path d="m344.693 216.007a5 5 0 0 0 -5.512 4.429c-.1.909-10.268 91.381-41.221 136.418a5 5 0 0 0 8.242 5.665c32.386-47.124 42.505-137.189 42.92-141a5 5 0 0 0 -4.429-5.512z" fill="#ffffff" data-original="#000000"></path><path d="m176.474 441.705a669.479 669.479 0 0 0 -135.329-31.684 5 5 0 1 0 -1.237 9.923c61.579 7.511 109 23.221 134.906 31.479a5.008 5.008 0 0 0 1.66-9.718z" fill="#ffffff" data-original="#000000"></path><path d="m458.855 410.021a669.479 669.479 0 0 0 -135.329 31.684c-6.162 2.381-2.979 11.442 3.319 9.433a659.229 659.229 0 0 1 133.247-31.194c6.486-1.009 5.408-10.512-1.237-9.923z" fill="#ffffff" data-original="#000000"></path></g></svg>