<svg xmlns="http://www.w3.org/2000/svg" version="1.1" xmlns:xlink="http://www.w3.org/1999/xlink" xmlns:svgjs="http://svgjs.com/svgjs" width="512" height="512" x="0" y="0" viewBox="0 0 64 64" style="enable-background:new 0 0 512 512" xml:space="preserve" class=""><g><g id="Layer_32" data-name="Layer 32"><path d="M49.75,20a3.263,3.263,0,0,0-1.949.65,20.788,20.788,0,0,0-5.739,6.579L41,29.143l0-4.072.869-12.162c.089-1.247.134-2.51.134-3.752a3.156,3.156,0,0,0-6.274-.493l-1.418,8.98L33.155,3.827A3.083,3.083,0,0,0,27,4.083V18.664L24.426,9.4A3.273,3.273,0,0,0,18,10.272a18.467,18.467,0,0,0,.358,3.619l1.726,8.629-3.676-5.251A2.972,2.972,0,0,0,11,18.973a5.088,5.088,0,0,0,.606,2.405L18,33.252v4.937a22.617,22.617,0,0,0,5,14.168V63h2V52a1.008,1.008,0,0,0-.231-.641A20.6,20.6,0,0,1,20,38.189V33a1.007,1.007,0,0,0-.119-.474l-6.514-12.1A3.085,3.085,0,0,1,13,18.973a.973.973,0,0,1,1.77-.558l6.411,9.158a1,1,0,0,0,1.8-.769L20.319,13.5A16.468,16.468,0,0,1,20,10.272a1.272,1.272,0,0,1,2.5-.34l4.538,16.336A1,1,0,0,0,29,26V4.083a1.083,1.083,0,0,1,2.163-.09L33,26.083a1,1,0,0,0,.959.916.955.955,0,0,0,1.024-.843L37.7,8.976a1.157,1.157,0,0,1,2.3.181c0,1.2-.043,2.41-.128,3.611L39,25v8a1,1,0,0,0,1.874.485L43.81,28.2A18.794,18.794,0,0,1,49,22.25a1.249,1.249,0,0,1,2,1,6.442,6.442,0,0,1-.677,2.867,27.165,27.165,0,0,0-2.768,9.732A17.976,17.976,0,0,1,43.28,45.971L41.241,48.35A.994.994,0,0,0,41,49V63h2V49.37l1.8-2.1A19.956,19.956,0,0,0,49.547,36.03a25.146,25.146,0,0,1,2.565-9.018A8.455,8.455,0,0,0,53,23.25,3.254,3.254,0,0,0,49.75,20Z" fill="#ffffff" data-original="#000000" class=""></path><path d="M33,43a8,8,0,1,0,8,8A8.009,8.009,0,0,0,33,43Zm0,14a6,6,0,1,1,6-6A6.006,6.006,0,0,1,33,57Z" fill="#ffffff" data-original="#000000" class=""></path><path d="M33,47a4,4,0,1,0,4,4A4,4,0,0,0,33,47Zm0,6a2,2,0,1,1,2-2A2,2,0,0,1,33,53Z" fill="#ffffff" data-original="#000000" class=""></path><path d="M28,42h2v-.789a12.459,12.459,0,0,1,4.035-9.168c.391-.02.782-.043,1.176-.043H37V30H35.211a24.736,24.736,0,0,0-13.766,4.168l1.11,1.664A22.734,22.734,0,0,1,31,32.405a14.466,14.466,0,0,0-3,8.806Z" fill="#ffffff" data-original="#000000" class=""></path></g></g></svg>